# This file uses centimeters as units for non-parametric coordinates.

mtllib DollChest.mtl
g default
v -0.460784 1.027461 0.442656
v 2.428849 1.027461 0.464902
v 2.428849 1.027461 -0.469606
v -0.460784 1.027461 -0.486787
v -0.342132 1.375920 0.342132
v 2.310197 1.375920 0.342132
v -0.342132 1.375920 -0.342132
v 2.310197 1.375920 -0.342132
v -0.500000 0.116304 0.462902
v -0.462902 0.116304 0.500000
v -0.500000 0.995202 0.462902
v -0.462902 0.995202 0.500000
v -0.480394 1.011330 0.473208
v 2.468065 0.116304 0.462902
v 2.430967 0.116304 0.500000
v 2.468065 0.995202 0.462902
v 2.441463 1.011330 0.471380
v 2.430967 0.995202 0.500000
v 2.468065 0.116304 -0.462902
v 2.430967 0.116304 -0.500000
v 2.430967 0.995202 -0.500000
v 2.448459 1.011330 -0.480052
v 2.468065 0.995202 -0.462902
v -0.462902 0.116304 -0.500000
v -0.500000 0.116304 -0.462902
v -0.500000 0.995202 -0.462902
v -0.480394 1.011330 -0.493394
v -0.462902 0.995202 -0.500000
v 2.430778 1.060152 0.500000
v 2.448459 1.045372 0.472874
v 2.468065 1.060152 0.462713
v 2.468065 1.218052 0.462713
v 2.452843 1.233274 0.484778
v 2.430778 1.218052 0.500000
v -0.500000 1.060152 0.462713
v -0.480394 1.043808 0.474782
v -0.462713 1.060152 0.500000
v -0.462713 1.218052 0.500000
v -0.484778 1.233274 0.484778
v -0.500000 1.218052 0.462713
v 2.468065 1.060152 -0.462713
v 2.448459 1.043808 -0.482134
v 2.430778 1.060152 -0.500000
v 2.430778 1.218052 -0.500000
v 2.452843 1.233274 -0.484778
v 2.468065 1.218052 -0.462713
v -0.462713 1.060152 -0.500000
v -0.480394 1.043808 -0.493394
v -0.500000 1.060152 -0.462713
v -0.500000 1.218052 -0.462713
v -0.484778 1.233274 -0.484778
v -0.462713 1.218052 -0.500000
vt 0.008962 0.902282
vt 0.008962 0.689963
vt 0.232611 0.689963
vt 0.232611 0.902282
vt 0.000000 0.689963
vt 0.000000 0.902282
vt 0.241573 0.689963
vt 0.241573 0.902282
vt 0.006914 0.906178
vt 0.236754 0.906178
vt 0.234231 0.910075
vt 0.008479 0.910074
vt 0.237257 0.914024
vt 0.232566 0.917972
vt 0.009007 0.917972
vt 0.006553 0.914401
vt 0.241573 0.917972
vt 0.009007 0.956116
vt 0.232566 0.956116
vt 0.000000 0.917972
vt 0.241573 0.956116
vt 0.000000 0.956116
vt 0.038137 0.994253
vt 0.003677 0.959793
vt 0.237896 0.959793
vt 0.203437 0.994253
vt 0.519390 0.891487
vt 0.519390 0.679185
vt 0.743022 0.679185
vt 0.743022 0.891487
vt 0.510429 0.679185
vt 0.510429 0.891487
vt 0.751983 0.679185
vt 0.751983 0.891487
vt 0.512025 0.895383
vt 0.745512 0.895383
vt 0.738131 0.899279
vt 0.513621 0.899279
vt 0.745892 0.903228
vt 0.742976 0.907176
vt 0.519436 0.907176
vt 0.512025 0.903228
vt 0.751983 0.907176
vt 0.519436 0.945317
vt 0.742976 0.945317
vt 0.510429 0.907176
vt 0.751983 0.945317
vt 0.510429 0.945317
vt 0.748306 0.948994
vt 0.713850 0.983451
vt 0.548563 0.983451
vt 0.514106 0.948994
vt 0.301950 0.686231
vt 0.301950 0.035023
vt 0.469953 0.035023
vt 0.469953 0.686231
vt 0.266927 0.721254
vt 0.263190 0.715837
vt 0.263190 0.005417
vt 0.266927 0.000000
vt 0.508713 0.715837
vt 0.504976 0.721254
vt 0.504976 0.000000
vt 0.508713 0.005417
vt 0.778177 0.683750
vt 0.769631 0.675203
vt 0.769631 0.008546
vt 0.778177 0.000000
vt 0.991454 0.000000
vt 1.000000 0.008546
vt 1.000000 0.675203
vt 0.991454 0.683750
vt 0.207047 0.685845
vt 0.000000 0.685845
vt 0.000000 0.004121
vt 0.207047 0.004121
vt 0.210846 0.689966
vt 0.210846 0.001648
vt 0.214646 0.004620
vt 0.214646 0.685346
vt 0.218866 0.000000
vt 0.222348 0.004165
vt 0.222348 0.685800
vt 0.218497 0.689966
vt 0.259545 0.685800
vt 0.259545 0.004165
vt 0.765922 0.675138
vt 0.562107 0.675138
vt 0.562107 0.004056
vt 0.765922 0.004056
vt 0.554627 0.674647
vt 0.554627 0.004548
vt 0.558367 0.000000
vt 0.558367 0.679195
vt 0.550836 0.679195
vt 0.547046 0.675095
vt 0.547046 0.004100
vt 0.550836 0.000000
vt 0.510429 0.675095
vt 0.510429 0.004100
vn -0.001447 0.005597 0.999983
vn -0.001439 -0.049867 0.998755
vn -0.000748 -0.816445 0.577423
vn -0.000269 -0.293333 0.956010
vn -0.000270 -0.294533 0.955641
vn -0.000748 -0.816445 0.577423
vn 0.999991 0.003562 0.002352
vn 0.999774 -0.021155 0.002323
vn 0.640338 -0.768093 0.000637
vn 0.640338 -0.768093 0.000637
vn 0.640338 -0.768093 0.000637
vn 0.640338 -0.768093 0.000637
vn -1.000000 -0.000006 0.000000
vn -0.999983 -0.005824 0.000000
vn -0.640315 -0.768112 -0.000000
vn -0.640315 -0.768112 -0.000000
vn -0.640315 -0.768112 -0.000000
vn -0.640315 -0.768112 -0.000000
vn 0.003589 0.000816 -0.999993
vn 0.003590 0.005033 -0.999981
vn 0.003122 0.560002 -0.828485
vn 0.000183 0.032768 -0.999463
vn 0.000198 0.035466 -0.999371
vn 0.003122 0.560002 -0.828485
vn -0.000074 0.066593 0.997780
vn 0.000000 0.000000 1.000000
vn 0.000000 0.000000 1.000000
vn -0.000067 0.060464 0.998170
vn 0.998712 0.050730 0.000155
vn 1.000000 0.000000 -0.000000
vn 1.000000 0.000000 -0.000000
vn 0.998239 0.059320 0.000181
vn 0.000000 0.000000 -1.000000
vn 0.000000 0.000000 -1.000000
vn -0.997751 0.067036 0.000000
vn -1.000000 0.000000 0.000000
vn -1.000000 0.000000 0.000000
vn -0.998528 0.054233 0.000000
vn 0.000000 0.707107 0.707107
vn 0.000000 0.707107 0.707107
vn 0.000000 0.707107 0.707107
vn 0.000000 0.707107 0.707107
vn 0.000000 0.707107 0.707107
vn 0.000000 0.707107 0.707107
vn 0.707107 0.707107 0.000000
vn 0.707107 0.707107 0.000000
vn 0.707107 0.707107 0.000000
vn 0.707107 0.707107 0.000000
vn 0.707107 0.707107 0.000000
vn 0.707107 0.707107 0.000000
vn 0.000000 0.000000 1.000000
vn 0.000000 0.000000 1.000000
vn 0.000000 1.000000 0.000000
vn 0.000000 1.000000 0.000000
vn 0.000000 1.000000 0.000000
vn 0.000000 1.000000 0.000000
vn 0.000802 -0.156857 -0.987621
vn 0.000000 0.000000 -1.000000
vn 0.000000 0.000000 -1.000000
vn 0.000762 -0.148996 -0.988837
vn 1.000000 0.000000 0.000000
vn 1.000000 0.000000 0.000000
vn 1.000000 0.000000 0.000000
vn 1.000000 0.000000 0.000000
vn -1.000000 0.000000 0.000000
vn -1.000000 0.000000 0.000000
vn -1.000000 0.000000 0.000000
vn -1.000000 0.000000 0.000000
vn -0.000915 0.820124 0.572185
vn -0.000915 0.820124 0.572185
vn 0.635356 0.772216 0.002363
vn 0.635356 0.772216 0.002363
vn 0.000000 -1.000000 -0.000000
vn 0.000000 -1.000000 -0.000000
vn 0.000000 -1.000000 -0.000000
vn 0.000000 -1.000000 -0.000000
vn 0.000000 -1.000000 -0.000000
vn 0.000000 -1.000000 -0.000000
vn 0.000000 -1.000000 -0.000000
vn 0.000000 -1.000000 -0.000000
vn -0.635281 0.772281 0.000000
vn -0.635281 0.772281 0.000000
vn -0.707107 0.000000 0.707107
vn -0.707107 0.000000 0.707107
vn -0.707106 0.001205 0.707106
vn -0.707106 0.001634 0.707106
vn 0.707107 0.000000 0.707107
vn 0.707107 0.000000 0.707107
vn 0.707103 0.003204 0.707103
vn 0.707104 0.002960 0.707103
vn 0.707107 -0.000000 -0.707107
vn 0.707107 -0.000000 -0.707107
vn 0.707107 0.000345 -0.707107
vn 0.707107 0.000350 -0.707107
vn -0.707107 0.000000 -0.707107
vn -0.707107 0.000000 -0.707107
vn -0.707106 -0.001299 -0.707106
vn -0.707105 -0.002245 -0.707105
vn -0.654773 0.377552 0.654773
vn 0.553611 0.622117 0.553611
vn 0.703041 0.107087 -0.703041
vn -0.638141 -0.430756 -0.638142
vn -0.707107 0.707107 0.000000
vn -0.707107 0.707107 0.000000
vn -0.707107 0.707107 0.000000
vn -0.707107 0.707107 0.000000
vn -0.707107 0.707107 0.000000
vn -0.707107 0.707107 0.000000
vn 0.002838 -0.554879 -0.831926
vn 0.002838 -0.554879 -0.831926
vn 0.000000 0.707107 -0.707107
vn 0.000000 0.707107 -0.707107
vn 0.000000 0.707107 -0.707107
vn 0.000000 0.707107 -0.707107
vn 0.000000 0.707107 -0.707107
vn 0.000000 0.707107 -0.707107
vn 0.707092 -0.006282 0.707093
vn 0.707080 -0.008670 0.707081
vn 0.707097 -0.005225 0.707098
vn 0.707097 -0.005225 0.707098
vn -0.707090 -0.006885 0.707090
vn -0.707096 -0.005447 0.707097
vn -0.707097 -0.005225 0.707097
vn -0.707097 -0.005225 0.707097
vn 0.707106 -0.000139 -0.707107
vn 0.707106 -0.000150 -0.707107
vn 0.707097 -0.005225 -0.707098
vn 0.707097 -0.005225 -0.707098
vn -0.707052 0.012489 -0.707052
vn -0.707088 0.007327 -0.707088
vn -0.707097 -0.005225 -0.707097
vn -0.707097 -0.005225 -0.707097
vn 0.644368 -0.411801 0.644367
vn 0.673886 -0.302904 0.673890
vn -0.672262 -0.310041 0.672263
vn -0.673887 -0.302908 0.673887
vn 0.707083 -0.008040 -0.707084
vn 0.673886 -0.302904 -0.673890
vn -0.637684 0.432116 -0.637680
vn -0.673887 -0.302908 -0.673887
s 1
g pCube1
usemtl initialShadingGroup
f 1/80/1 2/79/2 30/81/3 29/82/4 37/83/5 36/84/6
s 2
f 2/12/7 3/11/8 42/13/9 41/14/10 31/15/11 30/16/12
s 3
f 4/38/13 1/37/14 36/39/15 35/40/16 49/41/17 48/42/18
s 4
f 4/91/19 3/92/20 22/93/21 21/89/22 28/88/23 27/94/24
s 1
f 12/73/25 10/74/26 15/75/27 18/76/28
s 2
f 16/1/29 14/2/30 19/3/31 23/4/32
s 4
f 24/87/33 28/88/23 21/89/22 20/90/34
s 3
f 26/27/35 25/28/36 9/29/37 11/30/38
s off
f 5/53/39 39/57/40 38/58/41 34/59/42 33/60/43 6/54/44
f 6/23/45 33/24/46 32/18/47 46/19/48 45/25/49 8/26/50
s 1
f 38/85/51 37/83/5 29/82/4 34/86/52
s off
f 5/53/53 6/54/54 8/55/55 7/56/56
s 4
f 47/96/57 52/99/58 44/100/59 43/97/60
s off
f 32/18/61 31/15/62 41/14/63 46/19/64
f 50/44/65 49/41/66 35/40/67 40/45/68
s 1
f 13/77/69 12/73/25 18/76/28 17/78/70 2/79/2 1/80/1
s 2
f 17/9/71 16/1/29 23/4/32 22/10/72 3/11/8 2/12/7
s off
f 25/65/73 24/66/74 20/67/75 19/68/76 14/69/77 15/70/78 10/71/79 9/72/80
s 3
f 27/35/81 26/27/35 11/30/38 13/36/82 1/37/14 4/38/13
s 5
f 9/29/83 10/33/84 12/34/85 11/30/86
s 6
f 15/5/87 14/2/88 16/1/89 18/6/90
s 7
f 19/3/91 20/7/92 21/8/93 23/4/94
s 8
f 24/31/95 25/28/96 26/27/97 28/32/98
s 5
f 11/30/86 12/34/85 13/36/99
s 6
f 16/1/89 17/9/100 18/6/90
s 7
f 21/8/93 22/10/101 23/4/94
s 8
f 26/27/97 27/35/102 28/32/98
s off
f 40/45/103 39/49/104 5/50/105 7/51/106 51/52/107 50/44/108
s 4
f 48/95/109 47/96/57 43/97/60 42/98/110 3/92/20 4/91/19
s off
f 52/61/111 51/62/112 7/56/113 8/55/114 45/63/115 44/64/116
s 9
f 29/20/117 31/15/118 32/18/119 34/22/120
s 10
f 35/40/121 37/43/122 38/47/123 40/45/124
s 11
f 41/14/125 43/17/126 44/21/127 46/19/128
s 12
f 47/46/129 49/41/130 50/44/131 52/48/132
s 9
f 29/20/117 30/16/133 31/15/118
f 32/18/119 33/24/134 34/22/120
s 10
f 35/40/121 36/39/135 37/43/122
f 38/47/123 39/49/136 40/45/124
s 11
f 41/14/125 42/13/137 43/17/126
f 44/21/127 45/25/138 46/19/128
s 12
f 47/46/129 48/42/139 49/41/130
f 50/44/131 51/52/140 52/48/132
g default
v -0.158425 0.926551 0.470691
v -0.136554 0.926551 0.448819
v -0.136554 0.904680 0.470691
v -0.136554 0.904680 0.514442
v -0.136554 0.926551 0.536313
v -0.158425 0.926551 0.514442
v 0.058740 0.904680 0.470691
v 0.058740 0.926551 0.448819
v 0.080612 0.926551 0.470691
v -0.158425 1.172783 0.470691
v -0.136554 1.194654 0.470691
v -0.136554 1.172783 0.448819
v 0.080612 0.926551 0.514442
v 0.058740 0.926551 0.536313
v 0.058740 0.904680 0.514442
v -0.158425 1.172783 0.514442
v -0.136554 1.172783 0.536313
v -0.136554 1.194654 0.514442
v 0.058740 1.172783 0.448819
v 0.058740 1.194654 0.470691
v 0.080612 1.172783 0.470691
v 0.058740 1.194654 0.514442
v 0.058740 1.172783 0.536313
v 0.080612 1.172783 0.514442
v 0.044363 0.944678 0.527872
v -0.122177 0.944678 0.527872
v -0.122177 1.154656 0.527872
v 0.044363 1.154656 0.527872
v 1.875071 0.926551 0.470691
v 1.896943 0.926551 0.448819
v 1.896943 0.904680 0.470691
v 1.896943 0.904680 0.514442
v 1.896943 0.926551 0.536313
v 1.875071 0.926551 0.514442
v 2.092237 0.904680 0.470691
v 2.092237 0.926551 0.448819
v 2.114108 0.926551 0.470691
v 1.875071 1.172783 0.470691
v 1.896943 1.194654 0.470691
v 1.896943 1.172783 0.448819
v 2.114108 0.926551 0.514442
v 2.092237 0.926551 0.536313
v 2.092237 0.904680 0.514442
v 1.875071 1.172783 0.514442
v 1.896943 1.172783 0.536313
v 1.896943 1.194654 0.514442
v 2.092237 1.172783 0.448819
v 2.092237 1.194654 0.470691
v 2.114108 1.172783 0.470691
v 2.092237 1.194654 0.514442
v 2.092237 1.172783 0.536313
v 2.114108 1.172783 0.514442
v 2.077860 0.944678 0.527872
v 1.911320 0.944678 0.527872
v 1.911320 1.154656 0.527872
v 2.077860 1.154656 0.527872
vt 0.807152 0.689369
vt 0.818394 0.689369
vt 0.818394 0.752634
vt 0.807152 0.752634
vt 0.818394 0.683750
vt 0.807152 0.683750
vt 0.824013 0.689369
vt 0.824013 0.752634
vt 0.818394 0.758253
vt 0.807152 0.758253
vt 0.801533 0.752634
vt 0.801533 0.689369
vt 0.831079 0.689369
vt 0.842320 0.689369
vt 0.842320 0.752634
vt 0.831079 0.752634
vt 0.831079 0.683750
vt 0.842320 0.683750
vt 0.847939 0.752634
vt 0.847939 0.689369
vt 0.831079 0.758253
vt 0.842320 0.758253
vt 0.825459 0.689369
vt 0.825459 0.752634
vt 0.452245 0.691850
vt 0.463486 0.691850
vt 0.463486 0.755115
vt 0.452245 0.755115
vt 0.463486 0.686231
vt 0.452245 0.686231
vt 0.469105 0.691850
vt 0.469105 0.755115
vt 0.463486 0.760734
vt 0.452245 0.760734
vt 0.446625 0.755115
vt 0.446625 0.691850
vt 0.855005 0.689369
vt 0.866246 0.689369
vt 0.866246 0.752633
vt 0.855005 0.752633
vt 0.855005 0.683750
vt 0.866246 0.683750
vt 0.871866 0.752633
vt 0.871866 0.689369
vt 0.855005 0.758253
vt 0.866246 0.758253
vt 0.849386 0.689369
vt 0.849386 0.752633
vt 0.902774 0.733179
vt 0.902774 0.683750
vt 0.913848 0.683750
vt 0.913848 0.733179
vt 0.897238 0.733179
vt 0.897238 0.683750
vt 0.919383 0.733179
vt 0.919383 0.683750
vt 0.950627 0.733179
vt 0.950627 0.683750
vt 0.961700 0.683750
vt 0.961700 0.733179
vt 0.945091 0.733179
vt 0.945091 0.683750
vt 0.967236 0.733179
vt 0.967236 0.683750
vt 0.878848 0.733179
vt 0.878848 0.683750
vt 0.889921 0.683750
vt 0.889921 0.733179
vt 0.873312 0.733179
vt 0.873312 0.683750
vt 0.895457 0.733179
vt 0.895457 0.683750
vt 0.926700 0.733179
vt 0.926700 0.683750
vt 0.937774 0.683750
vt 0.937774 0.733179
vt 0.921165 0.733179
vt 0.921165 0.683750
vt 0.943310 0.733179
vt 0.943310 0.683750
vt 0.350920 0.686231
vt 0.396709 0.686231
vt 0.393338 0.690481
vt 0.354291 0.690481
vt 0.396709 0.743963
vt 0.393338 0.739713
vt 0.354291 0.739713
vt 0.350920 0.743963
vt 0.753680 0.683750
vt 0.798670 0.683750
vt 0.798670 0.740474
vt 0.753680 0.740474
vt 0.303067 0.686231
vt 0.348856 0.686231
vt 0.345485 0.690481
vt 0.306438 0.690481
vt 0.348856 0.743963
vt 0.345485 0.739713
vt 0.306438 0.739713
vt 0.303067 0.743963
vt 0.398773 0.686231
vt 0.443762 0.686231
vt 0.443762 0.742955
vt 0.398773 0.742955
vn -0.577350 -0.577353 -0.577348
vn -0.577350 -0.577353 -0.577348
vn -0.577350 -0.577353 -0.577348
vn -0.577348 -0.577351 0.577352
vn -0.577348 -0.577351 0.577352
vn -0.577348 -0.577351 0.577352
vn 0.577351 -0.577351 -0.577349
vn 0.577351 -0.577351 -0.577349
vn 0.577351 -0.577351 -0.577349
vn -0.577348 0.577356 -0.577346
vn -0.577348 0.577356 -0.577346
vn -0.577348 0.577356 -0.577346
vn 0.577349 -0.577349 0.577353
vn 0.577349 -0.577349 0.577353
vn 0.577349 -0.577349 0.577353
vn -0.577345 0.577354 0.577352
vn -0.577345 0.577354 0.577352
vn -0.577345 0.577354 0.577352
vn 0.577351 0.577355 -0.577344
vn 0.577351 0.577355 -0.577344
vn 0.577351 0.577355 -0.577344
vn 0.577347 0.577354 0.577350
vn 0.577347 0.577354 0.577350
vn 0.577347 0.577354 0.577350
vn -0.707105 -0.707109 0.000000
vn -0.707105 -0.707109 0.000000
vn -0.707105 -0.707109 0.000000
vn -0.707105 -0.707109 0.000000
vn 0.000000 -0.707109 -0.707105
vn 0.000000 -0.707109 -0.707105
vn 0.000000 -0.707109 -0.707105
vn 0.000000 -0.707109 -0.707105
vn 0.000000 -1.000000 0.000000
vn 0.000000 -1.000000 0.000000
vn 0.000000 -1.000000 0.000000
vn 0.000000 -1.000000 0.000000
vn -0.707107 0.000000 -0.707107
vn -0.707107 0.000000 -0.707107
vn -0.707107 0.000000 -0.707107
vn -0.707107 0.000000 -0.707107
vn -1.000000 0.000000 0.000000
vn -1.000000 0.000000 0.000000
vn -1.000000 0.000000 0.000000
vn -1.000000 0.000000 0.000000
vn 0.000000 -0.707105 0.707108
vn 0.000000 -0.707105 0.707108
vn 0.000000 -0.707105 0.707108
vn 0.000000 -0.707105 0.707108
vn -0.707104 0.000000 0.707110
vn -0.707104 0.000000 0.707110
vn -0.707104 0.000000 0.707110
vn -0.707104 0.000000 0.707110
vn 0.000000 0.422127 0.906537
vn 0.000000 0.422127 0.906537
vn 0.000000 0.422127 0.906537
vn 0.000000 0.422127 0.906537
vn 0.506296 0.000000 0.862360
vn 0.506296 0.000000 0.862360
vn 0.506296 0.000000 0.862360
vn 0.506296 0.000000 0.862360
vn 0.000000 0.000000 -1.000000
vn 0.000000 0.000000 -1.000000
vn 0.000000 0.000000 -1.000000
vn 0.000000 0.000000 -1.000000
vn 0.707107 -0.707107 0.000000
vn 0.707107 -0.707107 0.000000
vn 0.707107 -0.707107 0.000000
vn 0.707107 -0.707107 0.000000
vn -0.707102 0.707112 0.000000
vn -0.707102 0.707112 0.000000
vn -0.707102 0.707112 0.000000
vn -0.707102 0.707112 0.000000
vn 0.000000 0.000000 1.000000
vn 0.000000 0.000000 1.000000
vn 0.000000 0.000000 1.000000
vn 0.000000 0.000000 1.000000
vn 0.707109 0.000000 -0.707105
vn 0.707109 0.000000 -0.707105
vn 0.707109 0.000000 -0.707105
vn 0.707109 0.000000 -0.707105
vn 0.000000 0.707111 -0.707102
vn 0.000000 0.707111 -0.707102
vn 0.000000 0.707111 -0.707102
vn 0.000000 0.707111 -0.707102
vn 1.000000 0.000000 0.000000
vn 1.000000 0.000000 0.000000
vn 1.000000 0.000000 0.000000
vn 1.000000 0.000000 0.000000
vn -0.506296 0.000000 0.862360
vn -0.506296 0.000000 0.862360
vn -0.506296 0.000000 0.862360
vn -0.506296 0.000000 0.862360
vn 0.707106 0.000000 0.707108
vn 0.707106 0.000000 0.707108
vn 0.707106 0.000000 0.707108
vn 0.707106 0.000000 0.707108
vn 0.000000 1.000000 0.000000
vn 0.000000 1.000000 0.000000
vn 0.000000 1.000000 0.000000
vn 0.000000 1.000000 0.000000
vn 0.000000 -0.422128 0.906536
vn 0.000000 -0.422128 0.906536
vn 0.000000 -0.422128 0.906536
vn 0.000000 -0.422128 0.906536
vn 0.000000 0.707108 0.707106
vn 0.000000 0.707108 0.707106
vn 0.000000 0.707108 0.707106
vn 0.000000 0.707108 0.707106
vn 0.707104 0.707110 0.000000
vn 0.707104 0.707110 0.000000
vn 0.707104 0.707110 0.000000
vn 0.707104 0.707110 0.000000
vn -0.577349 -0.577351 -0.577351
vn -0.577349 -0.577351 -0.577351
vn -0.577349 -0.577351 -0.577351
vn -0.577344 -0.577353 0.577353
vn -0.577344 -0.577353 0.577353
vn -0.577344 -0.577353 0.577353
vn 0.577355 -0.577348 -0.577348
vn 0.577355 -0.577348 -0.577348
vn 0.577355 -0.577348 -0.577348
vn -0.577347 0.577354 -0.577349
vn -0.577347 0.577354 -0.577350
vn -0.577347 0.577354 -0.577350
vn 0.577353 -0.577344 0.577353
vn 0.577353 -0.577344 0.577353
vn 0.577353 -0.577344 0.577353
vn -0.577341 0.577357 0.577353
vn -0.577341 0.577357 0.577353
vn -0.577341 0.577357 0.577353
vn 0.577353 0.577351 -0.577347
vn 0.577353 0.577351 -0.577347
vn 0.577353 0.577351 -0.577347
vn 0.577350 0.577348 0.577353
vn 0.577350 0.577348 0.577353
vn 0.577350 0.577348 0.577353
vn -0.707104 -0.707109 0.000000
vn -0.707104 -0.707109 0.000000
vn -0.707104 -0.707109 0.000000
vn -0.707104 -0.707109 0.000000
vn 0.000000 -0.707109 -0.707104
vn 0.000000 -0.707109 -0.707104
vn 0.000000 -0.707109 -0.707104
vn 0.000000 -0.707109 -0.707104
vn 0.000000 -1.000000 0.000000
vn 0.000000 -1.000000 0.000000
vn 0.000000 -1.000000 0.000000
vn 0.000000 -1.000000 0.000000
vn -0.707106 0.000000 -0.707108
vn -0.707106 0.000000 -0.707108
vn -0.707106 0.000000 -0.707108
vn -0.707106 0.000000 -0.707108
vn -1.000000 0.000000 0.000000
vn -1.000000 0.000000 0.000000
vn -1.000000 0.000000 0.000000
vn -1.000000 0.000000 0.000000
vn 0.000000 -0.707105 0.707108
vn 0.000000 -0.707105 0.707108
vn 0.000000 -0.707105 0.707108
vn 0.000000 -0.707105 0.707108
vn -0.707103 0.000000 0.707111
vn -0.707103 0.000000 0.707111
vn -0.707103 0.000000 0.707111
vn -0.707103 0.000000 0.707111
vn 0.000000 0.422127 0.906537
vn 0.000000 0.422127 0.906537
vn 0.000000 0.422127 0.906537
vn 0.000000 0.422127 0.906537
vn 0.506298 0.000000 0.862359
vn 0.506298 0.000000 0.862359
vn 0.506298 0.000000 0.862359
vn 0.506298 0.000000 0.862359
vn 0.000000 0.000000 -1.000000
vn 0.000000 0.000000 -1.000000
vn 0.000000 0.000000 -1.000000
vn 0.000000 0.000000 -1.000000
vn 0.707110 -0.707104 0.000000
vn 0.707110 -0.707104 0.000000
vn 0.707110 -0.707104 0.000000
vn 0.707110 -0.707104 0.000000
vn -0.707102 0.707112 0.000000
vn -0.707102 0.707112 0.000000
vn -0.707102 0.707112 0.000000
vn -0.707102 0.707112 0.000000
vn 0.000000 0.000000 1.000000
vn 0.000000 0.000000 1.000000
vn 0.000000 0.000000 1.000000
vn 0.000000 0.000000 1.000000
vn 0.707112 0.000000 -0.707102
vn 0.707112 0.000000 -0.707102
vn 0.707112 0.000000 -0.707102
vn 0.707112 0.000000 -0.707102
vn 0.000000 0.707112 -0.707102
vn 0.000000 0.707112 -0.707102
vn 0.000000 0.707112 -0.707102
vn 0.000000 0.707112 -0.707102
vn 1.000000 0.000000 0.000000
vn 1.000000 0.000000 0.000000
vn 1.000000 0.000000 0.000000
vn 1.000000 0.000000 0.000000
vn -0.506295 0.000000 0.862361
vn -0.506295 0.000000 0.862361
vn -0.506295 0.000000 0.862361
vn -0.506295 0.000000 0.862361
vn 0.707109 0.000000 0.707105
vn 0.707109 0.000000 0.707105
vn 0.707109 0.000000 0.707105
vn 0.707109 0.000000 0.707105
vn 0.000000 1.000000 0.000000
vn 0.000000 1.000000 0.000000
vn 0.000000 1.000000 0.000000
vn 0.000000 1.000000 0.000000
vn 0.000000 -0.422127 0.906537
vn 0.000000 -0.422127 0.906537
vn 0.000000 -0.422127 0.906537
vn 0.000000 -0.422127 0.906537
vn 0.000000 0.707108 0.707106
vn 0.000000 0.707108 0.707106
vn 0.000000 0.707108 0.707106
vn 0.000000 0.707108 0.707106
vn 0.707107 0.707106 0.000000
vn 0.707107 0.707106 0.000000
vn 0.707107 0.707106 0.000000
vn 0.707107 0.707106 0.000000
s off
g pCube3
usemtl initialShadingGroup
f 53/101/141 54/112/142 55/106/143
f 56/105/144 57/107/145 58/102/146
f 59/118/147 60/120/148 61/114/149
f 62/104/150 63/110/151 64/111/152
f 65/113/153 66/123/154 67/117/155
f 68/103/156 69/108/157 70/109/158
f 71/119/159 72/122/160 73/115/161
f 74/121/162 75/124/163 76/116/164
f 56/105/165 58/102/166 53/101/167 55/106/168
f 55/149/169 54/153/170 60/154/171 59/150/172
f 55/149/173 59/150/174 67/151/175 56/152/176
f 62/104/177 64/111/178 54/112/179 53/101/180
f 53/101/181 58/102/182 68/103/183 62/104/184
f 57/155/185 56/152/186 67/151/187 66/156/188
f 58/102/189 57/107/190 69/108/191 68/103/192
f 57/181/193 66/182/194 77/183/195 78/184/196
f 69/188/197 57/181/198 78/184/199 79/187/200
f 64/189/201 71/190/202 60/191/203 54/192/204
f 65/113/205 67/117/206 59/118/207 61/114/208
f 68/103/209 70/109/210 63/110/211 62/104/212
f 78/184/213 77/183/214 80/186/215 79/187/216
f 71/119/217 73/115/218 61/114/219 60/120/220
f 64/163/221 63/160/222 72/159/223 71/164/224
f 65/113/225 61/114/226 73/115/227 76/116/228
f 66/182/229 75/185/230 80/186/231 77/183/232
f 66/123/233 65/113/234 76/116/235 75/124/236
f 70/157/237 74/158/238 72/159/239 63/160/240
f 75/185/241 69/188/242 79/187/243 80/186/244
f 70/157/245 69/161/246 75/162/247 74/158/248
f 74/121/249 76/116/250 73/115/251 72/122/252
f 81/125/253 82/136/254 83/130/255
f 84/129/256 85/131/257 86/126/258
f 87/142/259 88/144/260 89/138/261
f 90/128/262 91/134/263 92/135/264
f 93/137/265 94/147/266 95/141/267
f 96/127/268 97/132/269 98/133/270
f 99/143/271 100/146/272 101/139/273
f 102/145/274 103/148/275 104/140/276
f 84/129/277 86/126/278 81/125/279 83/130/280
f 83/165/281 82/169/282 88/170/283 87/166/284
f 83/165/285 87/166/286 95/167/287 84/168/288
f 90/128/289 92/135/290 82/136/291 81/125/292
f 81/125/293 86/126/294 96/127/295 90/128/296
f 85/171/297 84/168/298 95/167/299 94/172/300
f 86/126/301 85/131/302 97/132/303 96/127/304
f 85/193/305 94/194/306 105/195/307 106/196/308
f 97/200/309 85/193/310 106/196/311 107/199/312
f 92/201/313 99/202/314 88/203/315 82/204/316
f 93/137/317 95/141/318 87/142/319 89/138/320
f 96/127/321 98/133/322 91/134/323 90/128/324
f 106/196/325 105/195/326 108/198/327 107/199/328
f 99/143/329 101/139/330 89/138/331 88/144/332
f 92/179/333 91/176/334 100/175/335 99/180/336
f 93/137/337 89/138/338 101/139/339 104/140/340
f 94/194/341 103/197/342 108/198/343 105/195/344
f 94/147/345 93/137/346 104/140/347 103/148/348
f 98/173/349 102/174/350 100/175/351 91/176/352
f 103/197/353 97/200/354 107/199/355 108/198/356
f 98/173/357 97/177/358 103/178/359 102/174/360
f 102/145/361 104/140/362 101/139/363 100/146/364
